<?xml version="1.0" encoding="utf-8"?>
<!-- Generator: Adobe Illustrator 21.0.0, SVG Export Plug-In . SVG Version: 6.00 Build 0)  -->
<svg version="1.1" id="Layer_1" xmlns="http://www.w3.org/2000/svg" xmlns:xlink="http://www.w3.org/1999/xlink" x="0px" y="0px"
	 viewBox="0 0 30 30" style="enable-background:new 0 0 30 30;" xml:space="preserve">
<style type="text/css">
	.st0{fill:#FFFFFF;}
</style>
<g>
	<g>
		<path class="st0" d="M22.2,8.4c-1-1-2.5-1-3.5,0c-1,1-1,2.6,0,3.6c1,1,2.5,1,3.5,0C23.2,11,23.2,9.4,22.2,8.4z M6.5,15.5l8,9l5-5
			l-8-9L6.5,15.5z"/>
	</g>
</g>
<path class="st0" d="M15.6,2.6l10.9,0.9l0.9,11.4L15.7,27.1c-0.2,0.2-0.5,0.4-0.8,0.4c-0.3,0-0.6-0.1-0.8-0.4L3.9,16.6
	c-0.5-0.5-0.5-1.4,0-1.9L15.6,2.6 M14.8,0.5L2.5,13.3c-1.2,1.3-1.2,3.4,0,4.7l10.1,10.5c0.6,0.6,1.4,1,2.3,1c0.8,0,1.6-0.3,2.3-1
	l12.4-12.8l-1.1-14L14.8,0.5L14.8,0.5z"/>
</svg>
