<?xml version="1.0" encoding="utf-8"?>
<!-- Generator: Adobe Illustrator 21.0.0, SVG Export Plug-In . SVG Version: 6.00 Build 0)  -->
<svg version="1.1" id="Layer_1" xmlns="http://www.w3.org/2000/svg" xmlns:xlink="http://www.w3.org/1999/xlink" x="0px" y="0px"
	 viewBox="0 0 30 30" style="enable-background:new 0 0 30 30;" xml:space="preserve">
<style type="text/css">
	.st0{fill:#FCFDFF;}
	.st1{fill:#FFFFFF;}
	.st2{fill:none;stroke:#FFFFFF;stroke-miterlimit:10;}
</style>
<path class="st0" d="M20.7,10.4H9.3C8.6,10.4,8,9.8,8,9V1.4C8,0.6,8.6,0,9.3,0h11.3C21.4,0,22,0.6,22,1.4V9
	C22,9.8,21.4,10.4,20.7,10.4z"/>
<g>
	<path class="st1" d="M9.3,21.6V28H2v-6.4H9.3 M9.8,19.6H1.5c-0.8,0-1.5,0.7-1.5,1.5v7.4C0,29.3,0.7,30,1.5,30h8.3
		c0.8,0,1.5-0.7,1.5-1.5v-7.4C11.3,20.2,10.6,19.6,9.8,19.6L9.8,19.6z"/>
</g>
<g>
	<path class="st1" d="M28,21.6V28h-7.3v-6.4H28 M28.5,19.6h-8.3c-0.8,0-1.5,0.7-1.5,1.5v7.4c0,0.8,0.7,1.5,1.5,1.5h8.3
		c0.8,0,1.5-0.7,1.5-1.5v-7.4C30,20.2,29.3,19.6,28.5,19.6L28.5,19.6z"/>
</g>
<path class="st2" d="M24.4,19.6v-3.3c0-0.8-0.7-1.5-1.5-1.5H7.1c-0.8,0-1.5,0.7-1.5,1.5v3.3"/>
<line class="st2" x1="14.6" y1="14.8" x2="14.6" y2="10.1"/>
</svg>
