<?xml version="1.0" encoding="utf-8"?>
<!-- Generator: Adobe Illustrator 21.0.0, SVG Export Plug-In . SVG Version: 6.00 Build 0)  -->
<svg version="1.1" id="Layer_1" xmlns="http://www.w3.org/2000/svg" xmlns:xlink="http://www.w3.org/1999/xlink" x="0px" y="0px"
	 viewBox="0 0 30 30" style="enable-background:new 0 0 30 30;" xml:space="preserve">
<style type="text/css">
	.st0{fill:#FFFFFF;}
</style>
<g>
	<g>
		<rect x="7.9" y="13.4" transform="matrix(-1 -1.224647e-16 1.224647e-16 -1 19.6985 30)" class="st0" width="3.8" height="3.2"/>
		<polygon class="st0" points="0,15 7.3,19.7 7.3,10.3 		"/>
	</g>
	<g>
		<rect x="18.3" y="13.4" class="st0" width="3.8" height="3.2"/>
		<polygon class="st0" points="30,15 22.7,10.3 22.7,19.7 		"/>
	</g>
	<g>
		
			<rect x="13.1" y="8.2" transform="matrix(6.123234e-17 -1 1 6.123234e-17 5.1507 24.8493)" class="st0" width="3.8" height="3.2"/>
		<polygon class="st0" points="15,0 10.3,7.3 19.7,7.3 		"/>
	</g>
	<g>
		
			<rect x="13.1" y="18.5" transform="matrix(-1.836970e-16 1 -1 -1.836970e-16 35.1507 5.1507)" class="st0" width="3.8" height="3.2"/>
		<polygon class="st0" points="15,30 19.7,22.7 10.3,22.7 		"/>
	</g>
</g>
</svg>
