<?xml version="1.0" encoding="utf-8"?>
<!-- Generator: Adobe Illustrator 21.0.0, SVG Export Plug-In . SVG Version: 6.00 Build 0)  -->
<svg version="1.1" id="Layer_1" xmlns="http://www.w3.org/2000/svg" xmlns:xlink="http://www.w3.org/1999/xlink" x="0px" y="0px"
	 viewBox="0 0 30 30" style="enable-background:new 0 0 30 30;" xml:space="preserve">
<style type="text/css">
	.st0{fill:#699DFF;}
</style>
<g>
	
		<rect x="7.9" y="13.6" transform="matrix(-1 -1.224647e-16 1.224647e-16 -1 19.6985 30.3755)" class="st0" width="3.8" height="3.2"/>
	<polygon class="st0" points="0,15.2 7.3,19.9 7.3,10.5 	"/>
</g>
<g>
	<rect x="18.3" y="13.6" class="st0" width="3.8" height="3.2"/>
	<polygon class="st0" points="30,15.2 22.7,10.5 22.7,19.9 	"/>
</g>
<g>
	<rect x="13.1" y="8.4" transform="matrix(6.123234e-17 -1 1 6.123234e-17 4.963 25.037)" class="st0" width="3.8" height="3.2"/>
	<polygon class="st0" points="15,0.2 10.3,7.5 19.7,7.5 	"/>
</g>
<g>
	
		<rect x="13.1" y="18.7" transform="matrix(-1.836970e-16 1 -1 -1.836970e-16 35.3385 5.3385)" class="st0" width="3.8" height="3.2"/>
	<polygon class="st0" points="15,30.2 19.7,22.8 10.3,22.8 	"/>
</g>
</svg>
